<?xml version="1.0" encoding="utf-8"?>
<!-- Generator: Adobe Illustrator 25.0.0, SVG Export Plug-In . SVG Version: 6.00 Build 0)  -->
<svg version="1.1" id="Layer_1" xmlns="http://www.w3.org/2000/svg" xmlns:xlink="http://www.w3.org/1999/xlink" x="0px" y="0px"
	 viewBox="0 0 139.8 32" style="enable-background:new 0 0 139.8 32;" xml:space="preserve">
<style type="text/css">
	.st0{fill:none;}
</style>
<g>
	<path class="st0" d="M45.7,9c-1.1,0-1.9,0.5-2.6,1.6c-0.6,1.1-0.9,2.5-0.9,4.4c0,1.9,0.3,3.3,0.9,4.4c0.6,1.1,1.5,1.6,2.6,1.6
		s1.9-0.5,2.6-1.6c0.6-1.1,0.9-2.5,0.9-4.4c0-1.9-0.3-3.3-0.9-4.4C47.7,9.6,46.8,9,45.7,9z"/>
	<path d="M16,0C7.2,0,0.1,7.1,0.1,15.9c0,8.8,7.1,15.9,15.9,15.9c8.8,0,15.9-7.1,15.9-15.9C31.9,7.1,24.8,0,16,0z M25.3,16.9h-3.1
		l-2.6,7.8c-0.1,0.4-0.5,0.6-0.9,0.6c-0.4,0-0.8-0.3-0.9-0.6l-4.7-14.2l-1.9,5.8c-0.1,0.4-0.5,0.6-0.9,0.6H6.6
		c-0.5,0-0.9-0.4-0.9-0.9S6.1,15,6.6,15h3.1l2.6-7.8c0.1-0.4,0.5-0.6,0.9-0.6c0.4,0,0.8,0.3,0.9,0.6l4.7,14.2l1.9-5.8
		c0.1-0.4,0.5-0.6,0.9-0.6h3.7c0.5,0,0.9,0.4,0.9,0.9S25.9,16.9,25.3,16.9z"/>
	<path d="M47.3,4.9c-1.2,0-2.2,0.3-3,0.8c-0.9,0.6-1.6,1.4-2.1,2.5V5.4h-5.1V32h5.1V21.9c0.6,1.1,1.3,1.9,2.2,2.4
		c0.8,0.5,1.7,0.8,2.8,0.8c2.3,0,4.1-0.9,5.3-2.6c1.2-1.7,1.9-4.2,1.9-7.5c0-3.2-0.6-5.7-1.8-7.5C51.2,5.8,49.5,4.9,47.3,4.9z
		 M48.3,19.4c-0.6,1.1-1.5,1.6-2.6,1.6s-1.9-0.5-2.6-1.6c-0.6-1.1-0.9-2.5-0.9-4.4c0-1.9,0.3-3.3,0.9-4.4C43.8,9.6,44.6,9,45.7,9
		s1.9,0.5,2.6,1.6c0.6,1.1,0.9,2.5,0.9,4.4C49.2,16.8,48.9,18.3,48.3,19.4z"/>
	<path d="M69,16.4c0,1.4-0.3,2.6-0.8,3.4C67.8,20.6,67,21,66.1,21c-0.9,0-1.6-0.3-1.9-0.9c-0.4-0.6-0.6-1.6-0.6-3V5.4h-5.1v12.6
		c0,2.4,0.5,4.2,1.4,5.4c0.9,1.2,2.3,1.8,4.2,1.8c1.2,0,2.2-0.3,3.1-0.9c0.9-0.6,1.5-1.4,1.8-2.5v2.9h5.1V5.4H69V16.4z"/>
	<path d="M90,4.9c-1.2,0-2.2,0.3-3.1,0.9c-0.9,0.6-1.5,1.4-1.8,2.5V5.4H80v19.3h5.1v-11c0-1.4,0.3-2.6,0.8-3.4C86.4,9.4,87.1,9,88,9
		c0.9,0,1.5,0.3,1.9,0.9c0.4,0.6,0.6,1.6,0.6,3v11.7h5.1V12.1c0-2.4-0.5-4.2-1.4-5.4S91.8,4.9,90,4.9z"/>
	<polygon points="118,5.4 112.1,5.4 108.9,11.1 105.7,5.4 99.8,5.4 106.3,14.6 99.2,24.6 105.1,24.6 108.9,18.2 112.7,24.6 
		118.5,24.6 111.5,14.6 	"/>
	<path d="M134.4,5.4l-4.2,12.5l-4.4-12.5h-5.3l7.3,18.7l-0.4,1c-0.5,1.3-1,2.1-1.5,2.4c-0.5,0.3-1.2,0.5-2.3,0.5h-2V32h4.2
		c1.4,0,2.5-0.4,3.5-1.2c0.9-0.8,1.8-2.2,2.4-4l8-21.4H134.4z"/>
</g>
</svg>
