<?xml version="1.0" encoding="utf-8"?>
<!-- Generator: Adobe Illustrator 26.2.1, SVG Export Plug-In . SVG Version: 6.00 Build 0)  -->
<svg version="1.1" id="Layer_1" xmlns="http://www.w3.org/2000/svg" xmlns:xlink="http://www.w3.org/1999/xlink" x="0px" y="0px"
	 viewBox="0 0 130.4 32" style="enable-background:new 0 0 130.4 32;" xml:space="preserve">
<path d="M52.6,7.5c-1.4-1.7-3.1-2.6-5.3-2.6c-1.2,0-2.2,0.3-3,0.8c-0.9,0.6-1.6,1.4-2.1,2.5V5.4h-5.1V32h5.1V21.9
	c0.6,1.1,1.3,1.9,2.2,2.4c0.8,0.5,1.7,0.8,2.8,0.8c2.3,0,4.1-0.9,5.3-2.6s1.9-4.2,1.9-7.5C54.4,11.8,53.8,9.3,52.6,7.5z M48.3,19.4
	c-0.6,1.1-1.5,1.6-2.6,1.6c-1.1,0-1.9-0.5-2.6-1.6c-0.6-1.1-0.9-2.5-0.9-4.4s0.3-3.3,0.9-4.4c0.7-1,1.5-1.6,2.6-1.6
	c1.1,0,1.9,0.5,2.6,1.6c0.6,1.1,0.9,2.5,0.9,4.4C49.2,16.8,48.9,18.3,48.3,19.4z"/>
<path d="M67.3,16.4c0,1.4-0.3,2.6-0.8,3.4c-0.4,0.8-1.2,1.2-2.1,1.2s-1.6-0.3-1.9-0.9c-0.4-0.6-0.6-1.6-0.6-3V5.4h-5.1V18
	c0,2.4,0.5,4.2,1.4,5.4c0.9,1.2,2.3,1.8,4.2,1.8c1.2,0,2.2-0.3,3.1-0.9s1.5-1.4,1.8-2.5v2.9h5.1V5.4h-5.1
	C67.3,5.4,67.3,16.4,67.3,16.4z"/>
<path d="M85.5,4.9c-1.2,0-2.2,0.3-3.1,0.9s-1.5,1.4-1.8,2.5V5.4h-5.1v19.3h5.1v-11c0-1.4,0.3-2.6,0.8-3.4C81.9,9.4,82.6,9,83.5,9
	s1.5,0.3,1.9,0.9c0.4,0.6,0.6,1.6,0.6,3v11.7h5.1V12.1c0-2.4-0.5-4.2-1.4-5.4S87.3,4.9,85.5,4.9z"/>
<polygon points="110.7,5.4 104.8,5.4 101.6,11.1 98.4,5.4 92.5,5.4 99,14.6 91.9,24.6 97.8,24.6 101.6,18.2 105.4,24.6 111.2,24.6 
	104.2,14.6 "/>
<path d="M125.1,5.4l-4.2,12.5l-4.4-12.5h-5.3l7.3,18.7l-0.4,1c-0.5,1.3-1,2.1-1.5,2.4s-1.2,0.5-2.3,0.5h-2v4h4.2
	c1.4,0,2.5-0.4,3.5-1.2c0.9-0.8,1.8-2.2,2.4-4l8-21.4C130.4,5.4,125.1,5.4,125.1,5.4z"/>
<path d="M15.9,0.1C7.2,0.1,0,7.2,0,16s7.1,15.9,15.9,15.9S31.8,24.8,31.8,16S24.7,0.1,15.9,0.1z M20.8,19.7l-0.9,2.1l-1.6-2.1
	l-6.1,8.2l1.9-9l-9.2-0.7l9.7-2.6l-8-3.5L17,12.7l-5.6-8.5l14.2,11.5L20.8,19.7z"/>
</svg>
